PathFileType	4	(X/Y/Z)	Run_400 02
DataRate	CameraRate	NumFrames	NumMarkers	Units	OrigDataRate	OrigDataStartFrame	OrigNumFrames
100	100	4	42	mm	100	274	128
Frame#	Time	LASI			RASI			LPSI			RPSI			RTH1			RTH3			LTH1			LTH2			LTH3			RTB1			RTB2			LTB1			LTB2			RCAL			RTOE			LCAL			LTOE			LACR			RACR			CLAV			C7			RUA1			RUA2			RUA3			RLEL			RMEL			LUA1			LUA2			LUA3			LLEL			LMEL			RFAsuperior			RFAradius			RFAulna			LFAsuperior			LFAradius			LFAulna			RTH2			RTB3			RMT5			LMT5			LTB3		
		X1	Y1	Z1	X2	Y2	Z2	X3	Y3	Z3	X4	Y4	Z4	X5	Y5	Z5	X6	Y6	Z6	X7	Y7	Z7	X8	Y8	Z8	X9	Y9	Z9	X10	Y10	Z10	X11	Y11	Z11	X12	Y12	Z12	X13	Y13	Z13	X14	Y14	Z14	X15	Y15	Z15	X16	Y16	Z16	X17	Y17	Z17	X18	Y18	Z18	X19	Y19	Z19	X20	Y20	Z20	X21	Y21	Z21	X22	Y22	Z22	X23	Y23	Z23	X24	Y24	Z24	X25	Y25	Z25	X26	Y26	Z26	X27	Y27	Z27	X28	Y28	Z28	X29	Y29	Z29	X30	Y30	Z30	X31	Y31	Z31	X32	Y32	Z32	X33	Y33	Z33	X34	Y34	Z34	X35	Y35	Z35	X36	Y36	Z36	X37	Y37	Z37	X38	Y38	Z38	X39	Y39	Z39	X40	Y40	Z40	X41	Y41	Z41	X42	Y42	Z42	

274	  2.740000	772.541822	1030.080617	-430.570393	792.615501	1049.974663	-185.166116	610.579312	1132.265736	-338.116896	612.215073	1128.870475	-251.597042	767.140691	927.418958	-116.187159	865.629748	711.657035	-152.252338	660.217930	931.816786	-485.022780	675.088687	796.985600	-470.255519	541.866129	705.631370	-454.177227	971.721130	485.983178	-208.275450	920.254358	385.546936	-160.545602	449.737916	486.947509	-393.016905	341.992134	492.909841	-436.979182	816.252651	155.423607	-249.151622	1048.180552	139.864097	-244.812119	109.728942	403.992699	-306.371926	174.026780	183.814234	-339.975095	797.927395	1569.948792	-444.618922	735.252055	1566.767762	-119.618231	833.244775	1524.186072	-247.408741	704.628908	1597.000828	-306.306145	633.811483	1504.504972	-48.185065	552.956648	1457.614286	-94.278947	552.801097	1425.716590	-18.540742	494.031720	1346.490604	  8.822771	472.121908	1332.894695	-71.374147	792.734149	1486.974560	-557.197840	732.061914	1406.303738	-583.161866	796.453245	1387.772303	-627.048592	817.433016	1310.869186	-672.649694	761.298748	1260.464368	-647.526652	527.691192	1273.314207	 19.002178	688.061648	1148.459475	-26.178354	631.230555	1110.481048	 -8.562635	896.599214	1291.041895	-578.798596	929.106586	1327.506860	-430.047427	949.998637	1262.929773	-445.813534	883.743282	834.021365	-133.151301	945.916151	286.669186	-222.227459	1017.203970	 99.865994	-164.149333	109.907876	204.549268	-401.624097	279.398705	373.564027	-365.045135	
275	  2.750000	773.988893	1031.066971	-430.970974	792.948774	1048.875535	-184.634730	612.260838	1132.339037	-337.837033	613.857173	1127.662530	-251.786077	765.999583	923.828840	-117.215991	856.593820	703.302069	-150.832007	663.824639	932.973754	-486.260730	679.290816	797.734537	-471.117102	546.328814	705.406482	-456.271459	970.578607	479.606209	-206.453076	929.629352	374.951282	-158.975049	447.989006	490.540885	-395.170658	340.930515	504.010194	-439.112903	850.203657	137.038515	-249.673373	1082.373217	142.625583	-243.716091	103.184097	436.506113	-307.731027	149.365557	211.301549	-337.705711	797.646609	1571.659442	-442.531641	736.972176	1565.558188	-117.042487	834.186679	1523.827659	-245.680433	705.831285	1598.253186	-303.139070	635.185531	1502.793767	-46.009573	555.362864	1454.882879	-94.197883	554.136660	1424.255314	-18.105462	495.512984	1344.351478	  9.252569	475.058955	1329.557128	-71.190307	791.207387	1488.961032	-555.761336	730.490750	1408.762080	-581.926389	795.003116	1391.446899	-626.490025	815.908976	1314.591650	-672.199507	759.246285	1264.550338	-648.089002	529.425216	1271.453005	 20.667644	690.790982	1146.018544	-20.754845	633.544599	1108.061574	 -4.216131	895.024137	1291.017786	-579.080071	928.771601	1322.499764	-429.034900	948.759342	1258.275232	-447.455830	880.262748	827.447768	-131.651468	965.913312	279.060926	-220.008317	1054.949801	 95.243180	-165.623880	 86.456192	235.528092	-398.891835	268.819399	391.812813	-364.951294	
276	  2.760000	775.783660	1031.280372	-431.492265	793.969483	1046.199599	-184.699019	613.972952	1130.649954	-337.907729	615.242563	1124.131799	-253.227268	766.272088	920.274871	-119.117412	846.443897	694.294112	-148.898995	667.947359	932.624890	-487.794599	684.060467	796.995447	-472.230118	551.984608	703.469360	-458.241414	967.945682	473.763197	-204.574398	934.760274	366.729012	-156.931578	448.277751	492.828627	-396.375042	342.803314	513.488503	-441.092463	877.331964	124.696691	-249.576305	1108.296239	146.309617	-240.780854	100.642575	468.774785	-308.970382	127.747040	239.978072	-336.259780	796.970031	1572.253953	-440.031440	738.335093	1562.928765	-114.524650	834.684740	1522.535184	-244.030773	706.791344	1598.440834	-299.863768	636.719704	1499.483387	-43.290934	557.838970	1450.352840	-93.075289	555.938873	1420.176133	-16.733671	498.291238	1339.074807	 10.553527	478.904603	1323.422907	-69.833195	788.563116	1490.145550	-554.088891	727.740805	1410.601600	-580.286291	792.285958	1393.998007	-625.678417	812.838373	1316.960257	-671.469248	755.325685	1267.590325	-648.468075	532.455791	1266.423330	 23.077666	694.913341	1140.835796	-14.629490	637.132583	1102.785131	  0.485737	892.203534	1288.171893	-579.901161	929.113585	1313.851627	-429.113332	946.318980	1249.821036	-450.196241	875.439955	819.518479	-130.953511	981.002921	273.917832	-216.600530	1083.886205	 92.629872	-165.438714	 67.161616	268.417762	-397.542218	261.261901	409.934117	-364.625786	
277	  2.770000	777.990313	1030.910574	-432.281388	795.510017	1042.450999	-185.209089	615.374774	1127.545473	-338.472188	616.414795	1119.458557	-255.020038	767.004939	916.430551	-120.824512	836.148527	685.273402	-147.308361	672.224485	930.637509	-489.305430	689.397638	794.577527	-473.339518	559.126026	699.609143	-460.439759	964.614701	468.687830	-202.832808	936.064937	360.295867	-155.075018	450.453190	493.857413	-397.175140	347.184037	521.742896	-442.891405	895.788065	116.757381	-249.679414	1125.139080	148.592931	-236.221386	102.214866	500.038274	-310.210691	110.068828	269.423876	-336.066431	796.113907	1571.527306	-437.253489	739.360214	1558.768337	-112.029163	834.909306	1520.165394	-242.493746	707.476051	1597.204366	-296.503883	638.346709	1494.511702	-40.087230	560.158041	1443.811650	-90.834797	558.490796	1413.474804	-14.331033	502.373414	1330.868166	 12.774931	483.455299	1314.632069	-67.244643	785.498726	1490.700457	-551.985712	724.263159	1411.882237	-578.100813	788.540848	1395.197394	-624.452229	808.384186	1317.953720	-670.594453	749.611109	1269.582029	-648.448634	536.731970	1258.370662	 26.224920	700.361350	1132.987983	 -8.030290	642.018350	1094.804439	  5.573730	888.327679	1282.890662	-581.490500	929.647019	1301.948389	-430.677809	942.604695	1238.275138	-454.176295	869.382208	810.147060	-130.774312	990.475997	270.315662	-213.137937	1102.313514	 90.734448	-163.295926	 52.871206	302.714116	-398.147759	257.024394	427.547110	-364.582180	
